<svg id="visual" viewBox="0 0 900 600" width="900" height="600" xmlns="http://www.w3.org/2000/svg" xmlns:xlink="http://www.w3.org/1999/xlink" version="1.1"><rect width="900" height="600" fill="#1e1510f"></rect><g><g transform="translate(438 213)"><path d="M35.8 -34.2C43.6 -18.8 45.1 -4.1 41.8 9.3C38.5 22.6 30.5 34.6 19.8 38.9C9.1 43.3 -4.3 40 -21 35.2C-37.7 30.4 -57.8 24.1 -61.9 12.4C-65.9 0.7 -53.9 -16.3 -40.9 -32.9C-27.9 -49.5 -14 -65.7 0 -65.7C14 -65.7 28.1 -49.6 35.8 -34.2Z" fill="#351c12"></path></g><g transform="translate(431 549)"><path d="M50.7 -34.4C63.3 -24.6 69.5 -3.6 65.1 14.6C60.7 32.8 45.7 48.3 27.3 57.5C8.8 66.8 -13.1 69.8 -23.5 60.4C-33.9 50.9 -32.8 29.1 -36.2 9.6C-39.6 -9.9 -47.5 -27 -42.2 -35.1C-36.9 -43.3 -18.5 -42.4 0.3 -42.6C19 -42.9 38.1 -44.2 50.7 -34.4Z" fill="#351c12"></path></g><g transform="translate(687 274)"><path d="M31 -29.9C39.2 -14.4 44.3 -1.6 43.1 12.3C41.9 26.3 34.5 41.3 22.1 48.1C9.7 54.8 -7.6 53.4 -18.2 45.4C-28.8 37.4 -32.7 22.8 -38.5 6.2C-44.4 -10.5 -52.4 -29.3 -46.3 -44.3C-40.2 -59.3 -20.1 -70.5 -4.3 -67C11.4 -63.5 22.8 -45.4 31 -29.9Z" fill="#351c12"></path></g><g transform="translate(592 82)"><path d="M28.5 -16.7C40.3 -8.1 55.3 4 55.9 17.3C56.5 30.6 42.6 45.1 26.3 51.9C10 58.7 -8.7 57.9 -19 49.2C-29.2 40.5 -30.9 24 -33.2 9.1C-35.4 -5.9 -38.1 -19.2 -32.6 -26.4C-27.2 -33.6 -13.6 -34.6 -2.6 -32.6C8.4 -30.5 16.8 -25.3 28.5 -16.7Z" fill="#351c12"></path></g><g transform="translate(276 459)"><path d="M48.2 -40C54.3 -30.8 45.3 -11.3 38.1 4C30.9 19.3 25.4 30.3 16.6 34.6C7.8 38.8 -4.3 36.4 -19.4 32.3C-34.5 28.1 -52.6 22.1 -59.3 8.9C-66 -4.3 -61.4 -24.8 -49.6 -35.2C-37.8 -45.6 -18.9 -46 1.1 -46.9C21.1 -47.7 42.1 -49.1 48.2 -40Z" fill="#351c12"></path></g><g transform="translate(109 185)"><path d="M26.2 -23.8C32.8 -12.7 36.2 -1.8 34.5 8.8C32.8 19.4 26 29.7 14.9 37.6C3.8 45.5 -11.7 50.9 -27.7 47.2C-43.6 43.4 -60.1 30.4 -59.7 17.8C-59.2 5.1 -41.9 -7.2 -29.1 -19.8C-16.3 -32.4 -8.2 -45.2 0.8 -45.9C9.8 -46.5 19.6 -35 26.2 -23.8Z" fill="#351c12"></path></g><g transform="translate(92 452)"><path d="M41.6 -29.5C50.6 -21.8 52.5 -4.7 48.3 9.8C44 24.2 33.4 35.9 20.7 41.4C8 47 -7 46.4 -24.1 41.4C-41.1 36.5 -60.2 27.3 -62.4 15C-64.6 2.7 -49.9 -12.7 -36.7 -21.3C-23.4 -30 -11.7 -32 2.3 -33.8C16.2 -35.6 32.5 -37.2 41.6 -29.5Z" fill="#351c12"></path></g><g transform="translate(488 375)"><path d="M33 -20.4C45.3 -10.9 59.6 3 60.2 19.1C60.8 35.2 47.7 53.6 31.3 59.3C14.8 65.1 -5 58.3 -19.3 48.2C-33.7 38.2 -42.6 25 -48.7 8.3C-54.7 -8.3 -57.8 -28.5 -49.2 -37.1C-40.6 -45.8 -20.3 -43.1 -5 -39.1C10.3 -35.1 20.7 -29.9 33 -20.4Z" fill="#351c12"></path></g><g transform="translate(629 495)"><path d="M27 -23.5C36.1 -10.2 45.2 1.1 46.1 15.9C47 30.7 39.7 49.1 26.7 55.4C13.6 61.7 -5.3 55.9 -17.2 46.2C-29.2 36.4 -34.3 22.7 -40.3 6.3C-46.4 -10.1 -53.5 -29.2 -47 -41.9C-40.4 -54.6 -20.2 -60.9 -5.6 -56.4C9 -52 18 -36.7 27 -23.5Z" fill="#351c12"></path></g><g transform="translate(809 429)"><path d="M38.1 -30C46.6 -19.8 48.8 -4.1 44.3 8C39.8 20 28.7 28.3 16.9 33.3C5.1 38.3 -7.4 39.9 -17.3 35.3C-27.1 30.8 -34.3 20.1 -40.8 5.4C-47.2 -9.3 -53 -28.1 -46.1 -38C-39.2 -47.9 -19.6 -48.9 -2.4 -47C14.8 -45.1 29.6 -40.3 38.1 -30Z" fill="#351c12"></path></g><g transform="translate(377 54)"><path d="M45.2 -35.7C56 -22.6 60.2 -3.9 55.7 11.3C51.1 26.6 37.6 38.4 24.1 41.7C10.6 44.9 -2.9 39.6 -18.2 33.8C-33.4 28 -50.4 21.7 -55 10.1C-59.6 -1.5 -51.8 -18.3 -40.6 -31.6C-29.4 -44.8 -14.7 -54.5 1.3 -55.5C17.2 -56.5 34.4 -48.8 45.2 -35.7Z" fill="#351c12"></path></g><g transform="translate(870 51)"><path d="M35.3 -27.7C46.6 -14 57.1 0.7 56.9 17.6C56.8 34.6 45.9 53.7 29.8 61.3C13.6 68.9 -7.8 64.9 -21.9 54.6C-36 44.3 -42.7 27.8 -45.8 11.3C-48.8 -5.1 -48.2 -21.5 -40 -34.5C-31.7 -47.5 -15.9 -57.1 -1.9 -55.5C12 -54 24.1 -41.4 35.3 -27.7Z" fill="#351c12"></path></g><g transform="translate(880 253)"><path d="M29.1 -17.7C39.5 -10.1 51.1 2.1 52.1 17.7C53.2 33.3 43.8 52.4 30.3 56.5C16.8 60.5 -0.9 49.5 -19.4 40.5C-37.8 31.5 -57.1 24.5 -62.3 11.4C-67.5 -1.6 -58.6 -20.6 -45.8 -28.7C-33.1 -36.8 -16.6 -34.1 -3.6 -31.2C9.3 -28.3 18.7 -25.3 29.1 -17.7Z" fill="#351c12"></path></g><g transform="translate(248 291)"><path d="M38.9 -30.3C51.2 -15.7 62.3 0.5 58.8 12.3C55.2 24.2 37 31.5 18.9 40.9C0.8 50.3 -17.2 61.7 -32.4 57.9C-47.5 54.2 -59.8 35.3 -59.2 18.9C-58.6 2.6 -45.1 -11.3 -33.1 -25.9C-21.1 -40.4 -10.5 -55.6 1.4 -56.7C13.3 -57.8 26.7 -44.9 38.9 -30.3Z" fill="#351c12"></path></g><g transform="translate(818 598)"><path d="M32 -26.1C44.8 -9.5 60.6 4 59.1 14.6C57.5 25.2 38.5 32.9 20.9 40.2C3.2 47.4 -13.1 54.2 -28.8 50.3C-44.6 46.4 -59.9 31.8 -60.3 17.4C-60.6 3 -46.1 -11.1 -33.6 -27.6C-21.1 -44.1 -10.5 -63 -0.5 -62.6C9.6 -62.3 19.3 -42.6 32 -26.1Z" fill="#351c12"></path></g><g transform="translate(169 4)"><path d="M48.5 -33.1C60.5 -23.7 66.2 -3.6 62 13.8C57.7 31.3 43.6 46.2 26.8 53.3C10.1 60.4 -9.2 59.8 -24.6 52C-40 44.3 -51.5 29.3 -53.6 14C-55.7 -1.3 -48.3 -17 -37.8 -26.1C-27.3 -35.2 -13.7 -37.7 2.3 -39.5C18.3 -41.4 36.5 -42.5 48.5 -33.1Z" fill="#351c12"></path></g></g></svg>